<svg width="19" height="19" viewBox="0 0 19 19" fill="none" xmlns="http://www.w3.org/2000/svg">
<path d="M9.31 18.62C14.4517 18.62 18.62 14.4517 18.62 9.31C18.62 4.1682 14.4517 0 9.31 0C4.1682 0 0 4.1682 0 9.31C0 14.4517 4.1682 18.62 9.31 18.62Z" fill="#9282FA" fill-opacity="0.4"/>
<path fill-rule="evenodd" clip-rule="evenodd" d="M9.31001 4.8877C9.69563 4.8877 10.0083 5.20032 10.0083 5.58595V9.02067L12.1312 11.1438C12.4039 11.4164 12.4039 11.8585 12.1312 12.1311C11.8585 12.4039 11.4165 12.4039 11.1438 12.1311L8.81632 9.80363C8.6853 9.67277 8.61176 9.49512 8.61176 9.30995V5.58595C8.61176 5.20032 8.92438 4.8877 9.31001 4.8877Z" fill="#9282FA"/>
</svg>
