<svg width="20" height="20" viewBox="0 0 20 20" fill="none" xmlns="http://www.w3.org/2000/svg">
<path d="M9.99994 19.31C15.1417 19.31 19.3099 15.1417 19.3099 10C19.3099 4.85821 15.1417 0.690002 9.99994 0.690002C4.85815 0.690002 0.689941 4.85821 0.689941 10C0.689941 15.1417 4.85815 19.31 9.99994 19.31Z" fill="#9282FA" fill-opacity="0.4"/>
<path fill-rule="evenodd" clip-rule="evenodd" d="M10 5.57776C10.3856 5.57776 10.6983 5.89039 10.6983 6.27601V9.71073L12.8212 11.8338C13.0939 12.1065 13.0939 12.5485 12.8212 12.8212C12.5485 13.0939 12.1065 13.0939 11.8338 12.8212L9.50632 10.4937C9.3753 10.3628 9.30176 10.1852 9.30176 10V6.27601C9.30176 5.89039 9.61439 5.57776 10 5.57776Z" fill="#9282FA"/>
</svg>
