<svg width="20" height="20" viewBox="0 0 20 20" fill="none" xmlns="http://www.w3.org/2000/svg">
<path fill-rule="evenodd" clip-rule="evenodd" d="M6.42857 2.14285C5.72096 2.14285 5.16776 2.57307 4.8241 3.08855C4.47711 3.60902 4.28571 4.28691 4.28571 5C4.28571 5.71308 4.47711 6.39097 4.8241 6.91144C5.16776 7.42692 5.72096 7.85714 6.42857 7.85714C7.13619 7.85714 7.68939 7.42692 8.03304 6.91144C8.38003 6.39097 8.57143 5.71308 8.57143 5C8.57143 4.28691 8.38003 3.60902 8.03304 3.08855C7.68939 2.57307 7.13619 2.14285 6.42857 2.14285ZM13.5714 2.14285C12.8638 2.14285 12.3106 2.57307 11.967 3.08855C11.62 3.60902 11.4286 4.28691 11.4286 5C11.4286 5.71308 11.62 6.39097 11.967 6.91144C12.3106 7.42692 12.8638 7.85714 13.5714 7.85714C14.279 7.85714 14.8323 7.42692 15.1759 6.91144C15.5229 6.39097 15.7143 5.71308 15.7143 5C15.7143 4.28691 15.5229 3.60902 15.1759 3.08855C14.8323 2.57307 14.279 2.14285 13.5714 2.14285ZM2.14286 8.57142C1.43524 8.57142 0.882039 9.00164 0.538383 9.51712C0.191399 10.0376 0 10.7155 0 11.4286C0 12.1417 0.191399 12.8195 0.538383 13.34C0.882039 13.8555 1.43524 14.2857 2.14286 14.2857C2.85047 14.2857 3.40367 13.8555 3.74733 13.34C4.09431 12.8195 4.28571 12.1417 4.28571 11.4286C4.28571 10.7155 4.09431 10.0376 3.74733 9.51712C3.40367 9.00164 2.85047 8.57142 2.14286 8.57142ZM10 8.57142C8.2845 8.57142 7.01606 9.491 6.20377 10.6322C5.40271 11.7577 5 13.1527 5 14.2857C5 15.6059 5.79326 16.5236 6.7655 17.0749C7.72334 17.6181 8.92369 17.8571 10 17.8571C11.0763 17.8571 12.2767 17.6181 13.2345 17.0749C14.2067 16.5236 15 15.6059 15 14.2857C15 13.1527 14.5973 11.7577 13.7962 10.6322C12.9839 9.491 11.7155 8.57142 10 8.57142ZM17.8571 8.57142C17.1496 8.57142 16.5963 9.00164 16.2527 9.51712C15.9057 10.0376 15.7143 10.7155 15.7143 11.4286C15.7143 12.1417 15.9057 12.8195 16.2527 13.34C16.5963 13.8555 17.1496 14.2857 17.8571 14.2857C18.5647 14.2857 19.118 13.8555 19.4616 13.34C19.8086 12.8195 20 12.1417 20 11.4286C20 10.7155 19.8086 10.0376 19.4616 9.51712C19.118 9.00164 18.5647 8.57142 17.8571 8.57142Z" fill="#9282FA"/>
</svg>
