<svg width="20" height="20" viewBox="0 0 20 20" fill="none" xmlns="http://www.w3.org/2000/svg">
<path d="M9.0302 11.0319C5.98299 8.00201 7.08642 6.88592 7.0933 6.87903L2.91528 11.057C3.60443 12.0959 4.50234 13.2107 5.6706 14.3725C6.84963 15.5448 8.00903 16.4149 9.10707 17.0576L13.2069 12.9578C13.2069 12.9578 12.087 14.0714 9.0302 11.0319Z" fill="#9282FA" fill-opacity="0.4"/>
<path fill-rule="evenodd" clip-rule="evenodd" d="M13.2074 12.9575L13.6786 12.4891C14.3299 11.8414 15.3451 11.7084 16.1784 12.1614L18.1547 13.2358C19.4239 13.9256 19.7036 15.6165 18.7117 16.6029L17.2422 18.0639C16.8685 18.4355 16.4049 18.707 15.8717 18.7567C14.6385 18.8717 12.1012 18.8097 9.10764 17.0573L13.2074 12.9575ZM7.09388 6.87863L7.39051 6.58365C8.12146 5.8569 8.19034 4.69015 7.55265 3.83831L6.24822 2.09593C5.45901 1.04167 3.93386 0.902416 3.0293 1.80191L1.40559 3.41635C0.957036 3.8623 0.65644 4.44045 0.692936 5.08186C0.759831 6.25994 1.16144 8.41201 2.91578 11.0567L7.09388 6.87863Z" fill="#9282FA"/>
</svg>
